<svg width="16" height="16" viewBox="0 0 16 16" fill="none" xmlns="http://www.w3.org/2000/svg">
<path d="M7.99951 10.0001C9.10408 10.0001 9.99951 9.10469 9.99951 8.00012C9.99951 6.89555 9.10408 6.00012 7.99951 6.00012C6.89494 6.00012 5.99951 6.89555 5.99951 8.00012C5.99951 9.10469 6.89494 10.0001 7.99951 10.0001Z" stroke="black" stroke-width="2" stroke-linecap="round" stroke-linejoin="round"/>
<path d="M12.7084 9.90903C12.6236 10.101 12.5984 10.3139 12.6358 10.5203C12.6732 10.7267 12.7717 10.9172 12.9184 11.0672L12.9565 11.1054C13.0749 11.2236 13.1687 11.364 13.2328 11.5185C13.2968 11.673 13.3298 11.8386 13.3298 12.0058C13.3298 12.1731 13.2968 12.3387 13.2328 12.4932C13.1687 12.6477 13.0749 12.7881 12.9565 12.9063C12.8383 13.0246 12.698 13.1185 12.5435 13.1826C12.389 13.2466 12.2233 13.2796 12.0561 13.2796C11.8888 13.2796 11.7232 13.2466 11.5687 13.1826C11.4142 13.1185 11.2738 13.0246 11.1556 12.9063L11.1174 12.8681C10.9675 12.7214 10.777 12.623 10.5706 12.5856C10.3641 12.5481 10.1512 12.5734 9.95927 12.6581C9.77105 12.7388 9.61053 12.8727 9.49746 13.0435C9.3844 13.2142 9.32372 13.4143 9.3229 13.619V13.7272C9.3229 14.0648 9.18881 14.3885 8.95013 14.6272C8.71145 14.8658 8.38772 14.9999 8.05018 14.9999C7.71263 14.9999 7.38891 14.8658 7.15022 14.6272C6.91154 14.3885 6.77745 14.0648 6.77745 13.7272V13.6699C6.77252 13.4593 6.70434 13.255 6.58177 13.0837C6.45921 12.9123 6.28792 12.7818 6.09018 12.709C5.89824 12.6243 5.68533 12.5991 5.47889 12.6365C5.27246 12.6739 5.08197 12.7723 4.93199 12.919L4.89381 12.9572C4.77561 13.0755 4.63524 13.1694 4.48074 13.2335C4.32623 13.2975 4.16061 13.3305 3.99336 13.3305C3.8261 13.3305 3.66049 13.2975 3.50598 13.2335C3.35147 13.1694 3.21111 13.0755 3.0929 12.9572C2.97457 12.839 2.8807 12.6986 2.81665 12.5441C2.7526 12.3896 2.71963 12.224 2.71963 12.0568C2.71963 11.8895 2.7526 11.7239 2.81665 11.5694C2.8807 11.4149 2.97457 11.2745 3.0929 11.1563L3.13109 11.1181C3.27779 10.9681 3.3762 10.7777 3.41363 10.5712C3.45106 10.3648 3.4258 10.1519 3.34109 9.95994C3.26042 9.77172 3.12648 9.6112 2.95575 9.49813C2.78502 9.38507 2.58495 9.32439 2.38018 9.32358H2.27199C1.93445 9.32358 1.61072 9.18948 1.37204 8.9508C1.13336 8.71212 0.999268 8.3884 0.999268 8.05085C0.999268 7.7133 1.13336 7.38958 1.37204 7.15089C1.61072 6.91221 1.93445 6.77812 2.27199 6.77812H2.32927C2.5399 6.77319 2.74418 6.70501 2.91555 6.58245C3.08692 6.45988 3.21745 6.28859 3.29018 6.09085C3.37489 5.89891 3.40016 5.686 3.36272 5.47956C3.32529 5.27313 3.22688 5.08264 3.08018 4.93267L3.04199 4.89448C2.92366 4.77628 2.82979 4.63591 2.76574 4.48141C2.70169 4.3269 2.66872 4.16129 2.66872 3.99403C2.66872 3.82677 2.70169 3.66116 2.76574 3.50665C2.82979 3.35214 2.92366 3.21178 3.04199 3.09358C3.1602 2.97524 3.30056 2.88137 3.45507 2.81732C3.60958 2.75327 3.77519 2.7203 3.94245 2.7203C4.10971 2.7203 4.27532 2.75327 4.42983 2.81732C4.58433 2.88137 4.7247 2.97524 4.8429 3.09358L4.88109 3.13176C5.03106 3.27846 5.22155 3.37688 5.42798 3.41431C5.63442 3.45174 5.84733 3.42647 6.03927 3.34176H6.09018C6.27839 3.26109 6.43891 3.12715 6.55198 2.95642C6.66505 2.78569 6.72572 2.58562 6.72654 2.38085V2.27267C6.72654 1.93512 6.86063 1.61139 7.09931 1.37271C7.338 1.13403 7.66172 0.999939 7.99927 0.999939C8.33682 0.999939 8.66054 1.13403 8.89922 1.37271C9.1379 1.61139 9.27199 1.93512 9.27199 2.27267V2.32994C9.27281 2.53471 9.33349 2.73478 9.44655 2.90551C9.55962 3.07624 9.72014 3.21018 9.90836 3.29085C10.1003 3.37556 10.3132 3.40083 10.5196 3.3634C10.7261 3.32597 10.9166 3.22755 11.0665 3.08085L11.1047 3.04267C11.2229 2.92433 11.3633 2.83046 11.5178 2.76641C11.6723 2.70236 11.8379 2.66939 12.0052 2.66939C12.1724 2.66939 12.338 2.70236 12.4926 2.76641C12.6471 2.83046 12.7874 2.92433 12.9056 3.04267C13.024 3.16087 13.1178 3.30124 13.1819 3.45574C13.2459 3.61025 13.2789 3.77586 13.2789 3.94312C13.2789 4.11038 13.2459 4.27599 13.1819 4.4305C13.1178 4.58501 13.024 4.72537 12.9056 4.84358L12.8674 4.88176C12.7207 5.03173 12.6223 5.22222 12.5849 5.42866C12.5475 5.63509 12.5727 5.848 12.6574 6.03994V6.09085C12.7381 6.27906 12.8721 6.43959 13.0428 6.55265C13.2135 6.66572 13.4136 6.72639 13.6184 6.72721H13.7265C14.0641 6.72721 14.3878 6.8613 14.6265 7.09999C14.8652 7.33867 14.9993 7.66239 14.9993 7.99994C14.9993 8.33749 14.8652 8.66121 14.6265 8.89989C14.3878 9.13858 14.0641 9.27267 13.7265 9.27267H13.6693C13.4645 9.27348 13.2644 9.33416 13.0937 9.44723C12.923 9.56029 12.789 9.72081 12.7084 9.90903V9.90903Z" stroke="black" stroke-width="2" stroke-linecap="round" stroke-linejoin="round"/>
</svg>
